<?xml version="1.0" encoding="UTF-8"?>
<svg id="arte" xmlns="http://www.w3.org/2000/svg" viewBox="0 0 113 109">
  <defs>
    <style>
      .cls-1 {
        fill: #c49f5e;
      }
    </style>
  </defs>
  <path class="cls-1" d="m52.13,86.24l.44.06h-.12s-.33-.06-.33-.06Zm-.38-.05l.17.02.22.03h-.03s-.35-.05-.35-.05Zm10.21-.11h-.06s-.04.02-.04.02l.11-.02Zm.16-.03l-.16.03h.08s.07-.03.07-.03Zm8.8-17.13c-4.37,1.68-8.99,2.6-13.67,2.71v13.41c1.53-.04,3.05-.19,4.56-.45,3.82-4.73,6.9-10.01,9.12-15.67h0Zm-28.84,0c2.22,5.66,5.29,10.94,9.11,15.67,1.51.26,3.03.41,4.56.45v-13.41c-4.68-.11-9.31-1.03-13.68-2.71h0Zm-15.67-9.11l.04.24c.48,2.64,1.32,5.2,2.48,7.63h-.03c2.6-1.24,5.71-.15,6.96,2.45.92,1.91.59,4.19-.83,5.76l-.18.19c4,4.02,9.04,6.85,14.55,8.16-3.85-4.82-6.92-10.22-9.08-16-4.99-2.17-9.67-5-13.92-8.41h0Zm60.18,0l-.7.54c-4.06,3.18-8.5,5.82-13.23,7.87-2.16,5.78-5.22,11.18-9.08,16,4.52-1.08,8.73-3.17,12.32-6.12l.02.03c-1.52-2.45-.77-5.66,1.67-7.19,1.4-.87,3.12-1.03,4.66-.43l.22.09c2.05-3.3,3.45-6.96,4.12-10.79h0Zm-6.25,11.83c-2.06,0-3.73,1.67-3.73,3.73s1.67,3.73,3.73,3.73,3.73-1.67,3.73-3.73h0c0-2.06-1.67-3.73-3.73-3.73h0Zm-3.79,7.3l.04.04-.04-.04Zm-.24-.27l.03.04-.03-.04Zm-.18-.24l-.03-.04-.19-.29c.07.11.14.22.22.33h0Zm-41.76-1.92l-.08.07.08-.07Zm.25-.21l-.09.08.09-.08Zm-3.44-7.64c-2.06,0-3.73,1.67-3.73,3.73s1.67,3.73,3.73,3.73,3.73-1.67,3.73-3.73-1.67-3.73-3.73-3.73Zm51.94,2.29h.02s-.02,0-.02,0Zm-.33-.19l.05.02-.05-.02Zm-27.03-17h-16.38v.37s0,.37,0,.37c.01,4.32.73,8.6,2.11,12.69,4.55,1.83,9.39,2.82,14.29,2.94v-16.39Zm13.46,0h-11.97v16.39c4.9-.12,9.74-1.12,14.28-2.94.98-2.93,1.63-5.97,1.93-9.05-2.27-.4-4-2.25-4.26-4.53l.02.14h0Zm-41.21,14.48l-.04.03.04-.03Zm.28-.2h-.01s.01,0,.01,0Zm.3-.18h.02s.33-.18.33-.18c-.12.06-.23.12-.35.18h0Zm46.37-9.66c-.28,2.81-.84,5.59-1.7,8.29,4.87-2.19,9.43-5,13.58-8.36.14-1.2.21-2.41.21-3.62,0-.25,0-.5,0-.74h-7.49l.02-.14c-.28,2.42-2.19,4.32-4.61,4.58h0Zm-37.07-4.44h-11.92c0,.25,0,.5,0,.75,0,1.21.07,2.42.21,3.62,4.15,3.36,8.72,6.17,13.58,8.36-1.23-3.87-1.87-7.91-1.88-11.98,0-.25,0-.5,0-.75h0Zm36.13,4.46h.06s-.06,0-.06,0Zm-.29-.03l-.25-.04c.1.02.21.03.31.05h-.06Zm.66-8.9c-2.06,0-3.73,1.67-3.73,3.73s1.67,3.73,3.73,3.73c2.06,0,3.73-1.67,3.73-3.73,0-2.06-1.67-3.73-3.73-3.73Zm5.21,3.72v-.25s0-.03,0-.03c0,.09,0,.19,0,.28h0Zm-22.35-17.12v16.38h11.97v.1c.25-2.15,1.83-3.92,3.94-4.43l-.08.02c-.58-3.31-1.53-6.54-2.86-9.63-4.16-1.52-8.55-2.35-12.98-2.45h0Zm14.74,3.13c1.16,2.83,2.01,5.78,2.55,8.79h-.16c2.63,0,4.85,1.96,5.18,4.57v-.1s7.41,0,7.41,0c-.12-1.63-.37-3.25-.74-4.85-4.33-3.45-9.12-6.27-14.23-8.41h0Zm-30.98,0c-5.11,2.13-9.9,4.96-14.23,8.41-.38,1.59-.63,3.22-.75,4.85h11.91c.29-4.56,1.33-9.03,3.07-13.26h0Zm14.75-3.13c-4.43.1-8.81.93-12.98,2.45-1.91,4.42-3.04,9.13-3.35,13.93h16.33v-16.38Zm17.69,12h-.06s.06,0,.06,0Zm.29-.04h-.03.03Zm.32-.03h.32c-.13,0-.26,0-.4,0h.08Zm-24.65-23.03l-.4.1c-3.98,1-7.71,2.8-10.98,5.29.86.96,1.33,2.2,1.33,3.48,0,2.88-2.34,5.21-5.22,5.21h0c-1.18,0-2.33-.4-3.26-1.14l.06.05c-1.58,2.41-2.81,5.03-3.65,7.78,4.41-3.45,9.29-6.25,14.49-8.32,2.05-4.43,4.61-8.61,7.64-12.44h0Zm14.17,0l.22.28c2.93,3.75,5.42,7.83,7.42,12.15,5.2,2.07,10.08,4.87,14.49,8.31-.84-2.75-2.07-5.37-3.66-7.78l.03-.02c-.92.73-2.06,1.13-3.23,1.13-2.88,0-5.22-2.33-5.22-5.21h0c0-1.2.41-2.36,1.17-3.29l.16-.18c-3.38-2.57-7.25-4.41-11.38-5.39h0Zm15.27,5.13c-2.06,0-3.73,1.67-3.73,3.72h0c0,2.06,1.67,3.73,3.73,3.73h0c2.06,0,3.72-1.67,3.72-3.72,0-2.06-1.67-3.73-3.72-3.73h0Zm-44.7,0c-2.06,0-3.73,1.67-3.73,3.72h0c0,2.06,1.67,3.73,3.72,3.73,2.06,0,3.73-1.67,3.73-3.72h0c0-2.06-1.67-3.73-3.72-3.73h0,0Zm-3.74,7.36l-.05-.06.05.06Zm52.18,0l.03-.03-.02.03h0Zm.23-.25l.06-.07.02-.03s-.05.06-.08.09h0Zm-52.66-.02l-.06-.07-.21-.28c.09.12.18.24.27.35h0Zm25.6-13.04c-1.44.03-2.88.17-4.31.41l-.25.04c-3,3.75-5.56,7.83-7.63,12.16,3.93-1.35,8.04-2.09,12.19-2.18v-10.43Zm1.49,0v10.43c4.15.09,8.26.83,12.19,2.18-2.07-4.33-4.63-8.41-7.63-12.15-1.51-.27-3.03-.42-4.56-.45h0Zm-19.51,5.89l.06.06.24.25c-.1-.11-.2-.21-.3-.31h0Zm37.53,0l-.04.03.04-.03Zm-37.74-.19l-.03-.03.03.03Zm37.96,0l.05-.04-.05.04Zm.39-.3l.27-.18c-.12.07-.23.15-.34.23l.07-.05h0Zm-13.8-6.48l.06.07-.06-.07Zm-6.15-.41h-.16.16Zm.08,0h-.08.08Zm.08,0h-.1.1Zm.86,0h-.43s.43,0,.43,0h0Zm12.24,30.85v.19s.02.07.02.07c0-.09-.02-.17-.02-.26h0Zm10.39.26l-.02.18c.02-.14.04-.29.04-.44l-.02.26Zm-10.39-.85v.03c0,.08,0,.16,0,.25v-.28s0,0,0,0Zm.02-.26v.04s-.03.5-.03.5c0-.18,0-.36.03-.54h0Zm10.4.26l-.02-.21s0-.03,0-.05l.02.26Zm5.97,22.64c0,2.88-2.34,5.22-5.22,5.22-1.2,0-2.36-.41-3.29-1.17l-.2-.17c-4.16,3.43-9.11,5.75-14.41,6.74l-.4.07-.7.12.51-.08-.16.03c-.15.02-.29.05-.44.07-.23.03-.46.07-.69.09h-.07s-.07.02-.07.02c-.78.1-1.58.16-2.38.2l-.8.03h-.35s-.4,0-.4,0c-.21,0-.43,0-.64,0h-.11c-1.08-.02-2.13-.1-3.18-.23l-.66-.09-.22-.03c-.23-.03-.47-.07-.7-.11l-.11-.02c-6.54-1.16-12.56-4.34-17.22-9.08l-.09.05c-2.56,1.32-5.71.32-7.03-2.23-1.09-2.11-.62-4.68,1.14-6.27h0c-1.54-3.18-2.55-6.58-2.98-10.08v-.09c-.07-.47-.11-.94-.15-1.42v-.12c-.06-.76-.09-1.53-.09-2.3v-.75s.02-.28.02-.28c0-.1,0-.2.01-.3v-.16s.01-.09.01-.09c.06-1.25.19-2.49.4-3.72l.1-.56-.02.08.06-.34c.03-.16.06-.32.1-.48.01-.06.03-.12.04-.19l.04-.16c.86-3.9,2.45-7.6,4.68-10.91l-.1-.15c-.56-.85-.86-1.84-.86-2.86,0-2.88,2.33-5.21,5.21-5.22.98,0,1.93.27,2.76.79l-.04-.03c4.09-3.19,8.9-5.32,14.01-6.23l.11-.02c.49-.09.99-.16,1.49-.22h.05s.05-.01.05-.01c.78-.09,1.58-.16,2.38-.2l.8-.03h.37s.37,0,.37,0c.21,0,.43,0,.64,0h.11c1.35.03,2.69.15,4.02.34h.05c.24.04.48.08.72.12h.08c5.11.92,9.92,3.06,14.02,6.24l-.04.03c.83-.52,1.78-.79,2.76-.79,2.88,0,5.21,2.34,5.21,5.22,0,1.09-.34,2.14-.97,3.03h.01c2.12,3.13,3.66,6.63,4.54,10.32l.1.43h0s0,0,0,0l.03.14.04.16c.01.06.03.12.04.19.03.12.05.24.07.36v.02c.03.15.06.29.09.44l.03.14c.19,1.08.33,2.16.4,3.25l.02.31v-.15s.02.42.02.42v.21s.02.24.02.24c0,.1,0,.21.01.31,0,.09,0,.19,0,.28,0,.25,0,.5,0,.75,0,.78-.03,1.54-.08,2.3v.12c-.04.48-.09.96-.15,1.43v.07s.23-.2.23-.2l-.24.2c-.56,4.61-2.12,9.03-4.58,12.97h-.01c1.17.98,1.85,2.43,1.85,3.96h0Z"/>
</svg>