<svg width="22" height="23" viewBox="0 0 22 23" fill="none" xmlns="http://www.w3.org/2000/svg">
<g id="arte" clipPath="url(#clip0_1593_4997)">
<path id="Vector" d="M2.32105 17.3205V21.6694C2.32105 22.2778 2.81678 22.7736 3.42518 22.7736H20.8885C21.4969 22.7736 21.9926 22.2778 21.9926 21.6694V13.3246C21.9926 12.8589 21.7447 12.5059 21.3542 12.3256C21.4218 11.8299 21.4593 11.2891 21.4593 10.7558C21.4969 4.87461 16.7874 -0.00759888 10.7635 -0.00759888C1.56994 -8.77823e-05 -3.13201 10.9436 2.32105 17.3205ZM8.26983 1.03644C7.34597 1.85515 6.51975 3.10199 5.95642 4.74692C4.95744 4.60421 3.99602 4.42395 3.24491 4.17608C4.59691 2.56871 6.34699 1.53969 8.26983 1.03644ZM18.3572 4.17608C17.5761 4.38639 16.6447 4.60421 15.6457 4.74692C15.0373 3.10951 14.2186 1.86266 13.2948 1.03644C15.2927 1.53218 17.0353 2.64382 18.3572 4.17608ZM6.51975 22.1051L3.06464 18.65V16.3666L6.51975 12.9115H17.854L21.3091 16.3666V18.65L17.854 22.1051H6.51975ZM11.1165 12.1979V11.0938H15.856C15.856 11.4844 15.8185 11.8449 15.8185 12.1979H11.1165ZM11.1165 10.3802V5.78346C12.5061 5.78346 13.8581 5.6783 15.1124 5.53559C15.5781 7.00025 15.826 8.67523 15.8636 10.3802H11.1241H11.1165ZM11.1165 5.0699V0.751022C12.6112 0.961332 13.9708 2.46355 14.8946 4.85208C13.7154 4.95723 12.4385 5.03235 11.1165 5.06239V5.0699ZM10.403 5.0699C9.08103 5.0699 7.83419 4.96475 6.6249 4.85959C7.51872 2.47106 8.90828 0.976355 10.403 0.758533V5.0699ZM6.40708 5.53559C7.65392 5.6783 9.00592 5.78346 10.403 5.78346V10.3802H5.66348C5.70104 8.63016 5.94891 6.99274 6.41459 5.53559H6.40708ZM10.403 11.0938V12.1979H5.73108C5.69353 11.8449 5.69353 11.4468 5.69353 11.0938H10.3955H10.403ZM5.48322 12.9115L3.02709 15.3676V13.3021C3.02709 13.0918 3.20736 12.9115 3.41767 12.9115H5.48322ZM21.3091 15.3676L18.853 12.9115H20.9185C21.1288 12.9115 21.3091 13.0918 21.3091 13.3021V15.3676ZM16.532 12.1979C16.5696 11.8449 16.5696 11.4468 16.5696 11.0938H20.7383C20.7383 11.4844 20.7007 11.8449 20.6331 12.1979H16.532ZM16.5996 10.3802C16.5621 8.63016 16.3142 6.92514 15.8485 5.42292C16.9527 5.24266 17.9892 5.03235 18.8079 4.78448C20.0172 6.4219 20.7007 8.35225 20.7683 10.3802H16.5996ZM2.74918 4.77697C3.56789 5.02484 4.60442 5.2727 5.70855 5.41541C5.24286 6.91012 4.995 8.62265 4.95744 10.3727H0.788782C0.863893 8.33723 1.53989 6.41439 2.74918 4.77697ZM4.95744 11.0863C4.95744 11.4769 4.995 11.8374 4.995 12.1904H3.42518C2.81678 12.1904 2.32105 12.6862 2.32105 13.2946V16.1112C1.50234 14.8644 0.826337 13.0467 0.751226 11.0487H4.95744V11.0863ZM3.0346 21.707V19.6414L5.49073 22.0976H3.42518C3.24491 22.0976 3.0346 21.9173 3.0346 21.707ZM20.926 22.0976H18.8605L21.3166 19.6414V21.707C21.3166 21.9173 21.1363 22.0976 20.926 22.0976Z" fill="#CAA55E"/>
<path id="Vector_2" d="M5.28023 15.901C4.38641 15.901 3.67285 16.6146 3.67285 17.5084C3.67285 18.4022 4.38641 19.1157 5.28023 19.1157C6.17405 19.1157 6.8876 18.4022 6.8876 17.5084C6.8876 16.6146 6.17405 15.901 5.28023 15.901ZM5.28023 18.3947C4.78449 18.3947 4.38641 18.0041 4.38641 17.5009C4.38641 16.9976 4.77698 16.607 5.28023 16.607C5.78347 16.607 6.17405 16.9976 6.17405 17.5009C6.17405 18.0041 5.78347 18.3947 5.28023 18.3947Z" fill="#CAA55E"/>
<path id="Vector_3" d="M19.2133 15.901C18.3195 15.901 17.606 16.6146 17.606 17.5084C17.606 18.4022 18.3195 19.1157 19.2133 19.1157C20.1072 19.1157 20.8207 18.4022 20.8207 17.5084C20.8207 16.6146 20.1072 15.901 19.2133 15.901ZM19.2133 18.3947C18.7176 18.3947 18.3195 18.0041 18.3195 17.5009C18.3195 16.9976 18.7101 16.607 19.2133 16.607C19.7166 16.607 20.1072 16.9976 20.1072 17.5009C20.1072 18.0041 19.7166 18.3947 19.2133 18.3947Z" fill="#CAA55E"/>
<path id="Vector_4" d="M12.1906 13.3698C9.90724 13.3698 8.052 15.225 8.052 17.5084C8.052 19.7917 9.90724 21.647 12.1906 21.647C14.474 21.647 16.3292 19.7917 16.3292 17.5084C16.3292 15.225 14.474 13.3698 12.1906 13.3698ZM12.1906 20.9259C10.2978 20.9259 8.76556 19.3936 8.76556 17.5009C8.76556 15.6081 10.2978 14.0758 12.1906 14.0758C14.0834 14.0758 15.6157 15.6081 15.6157 17.5009C15.6157 19.3936 14.0834 20.9259 12.1906 20.9259Z" fill="#CAA55E"/>
<path id="Vector_5" d="M12.3332 17.0051V16.1489C12.5435 16.1864 12.7613 16.254 12.9716 16.3967L13.257 15.9686C12.9716 15.7583 12.6486 15.6456 12.3332 15.6456V15.4353H12.0477V15.6832C11.5144 15.7207 11.0863 16.0362 11.0863 16.577C11.0863 17.1478 11.4769 17.3281 12.0477 17.4708V18.3271C11.7999 18.2895 11.5144 18.1468 11.2666 17.9365L10.9436 18.3271C11.2666 18.6125 11.6196 18.7552 12.0477 18.8228V19.1458H12.3332V18.8228C12.904 18.7853 13.3321 18.4698 13.3321 17.929C13.3697 17.253 12.8364 17.1779 12.3332 17.0051ZM12.0477 16.9375C11.7999 16.8699 11.6196 16.7948 11.6196 16.5469C11.6196 16.3366 11.8299 16.1939 12.0477 16.1939V16.945V16.9375ZM12.3332 18.3646V17.5459C12.581 17.6135 12.7988 17.7262 12.7988 17.9741C12.7988 18.2219 12.5885 18.3646 12.3332 18.3646Z" fill="#CAA55E"/>
</g>
<defs>
<clipPath id="clip0_1593_4997">
<rect width="22" height="22.7812" fill="white"/>
</clipPath>
</defs>
</svg>
