<svg width="18" height="20" viewBox="0 0 18 20" fill="none" xmlns="http://www.w3.org/2000/svg">
<g id="ICONO CREDITO">
<g id="Group 1">
<path id="Vector" d="M12.1288 9.58556H2.89756C2.80688 9.58556 2.71992 9.62366 2.6558 9.69147C2.59169 9.75928 2.55566 9.85125 2.55566 9.94715C2.55566 10.0431 2.59169 10.135 2.6558 10.2028C2.71992 10.2706 2.80688 10.3087 2.89756 10.3087H11.2189C11.4967 10.0253 11.8092 9.78276 12.1482 9.58764C12.1417 9.58724 12.1355 9.58556 12.1288 9.58556Z" fill="#CAA55E"/>
<path id="Vector_2" d="M14.0151 18.3166L14.0153 18.7609H1.01718L1.01115 1.13344H14.0093L14.0126 10.9791C14.0683 10.9772 14.124 10.9754 14.1802 10.9754C14.3517 10.9758 14.5229 10.9849 14.6931 11.0028V1.13344C14.6939 0.978289 14.6229 0.829229 14.4958 0.719039C14.3687 0.608849 14.1958 0.546553 14.0153 0.545853H1.01115C0.830604 0.546553 0.657771 0.608849 0.530667 0.719039C0.403564 0.829229 0.332599 0.978289 0.33338 1.13344V18.7609C0.332599 18.9161 0.403564 19.0651 0.530667 19.1753C0.657771 19.2855 0.830604 19.3478 1.01115 19.3485H14.0153C14.1958 19.3478 14.3687 19.2855 14.4958 19.1753C14.6229 19.0651 14.6939 18.9161 14.6931 18.7609V18.2928C14.5229 18.3108 14.3517 18.3199 14.1802 18.3202C14.1249 18.3202 14.07 18.3184 14.0151 18.3166Z" fill="#CAA55E"/>
<path id="Vector_3" d="M14.1803 9.76637C13.4702 9.76637 12.7762 9.98904 12.1858 10.4062C11.5954 10.8234 11.1353 11.4164 10.8636 12.1101C10.5919 12.8039 10.5208 13.5673 10.6593 14.3038C10.7978 15.0402 11.1397 15.7167 11.6418 16.2477C12.1439 16.7787 12.7835 17.1403 13.4799 17.2868C14.1763 17.4333 14.8981 17.3581 15.5541 17.0707C16.21 16.7834 16.7707 16.2967 17.1652 15.6724C17.5596 15.048 17.7702 14.314 17.7702 13.5631C17.7702 12.5561 17.3919 11.5904 16.7187 10.8784C16.0455 10.1664 15.1324 9.76638 14.1803 9.76637ZM14.1803 16.6366C13.6055 16.6366 13.0436 16.4563 12.5657 16.1186C12.0878 15.7809 11.7153 15.3008 11.4953 14.7392C11.2754 14.1776 11.2178 13.5596 11.33 12.9634C11.4421 12.3672 11.7189 11.8196 12.1253 11.3898C12.5317 10.9599 13.0496 10.6672 13.6133 10.5486C14.177 10.43 14.7614 10.4909 15.2924 10.7235C15.8234 10.9561 16.2773 11.3501 16.5966 11.8555C16.9159 12.3609 17.0864 12.9552 17.0864 13.5631C17.0855 14.3779 16.7791 15.1591 16.2342 15.7353C15.6894 16.3115 14.9507 16.6356 14.1803 16.6366Z" fill="#CAA55E"/>
<path id="Vector_4" d="M10.6413 11.0319H2.89756C2.80688 11.0319 2.71992 11.07 2.6558 11.1378C2.59169 11.2056 2.55566 11.2976 2.55566 11.3935C2.55566 11.4894 2.59169 11.5814 2.6558 11.6492C2.71992 11.717 2.80688 11.7551 2.89756 11.7551H10.2644C10.3689 11.5024 10.495 11.2603 10.6413 11.0319Z" fill="#CAA55E"/>
<path id="Vector_5" d="M10.0317 12.4783H2.89756C2.80688 12.4783 2.71992 12.5164 2.6558 12.5842C2.59169 12.6521 2.55566 12.744 2.55566 12.8399C2.55566 12.9358 2.59169 13.0278 2.6558 13.0956C2.71992 13.1634 2.80688 13.2015 2.89756 13.2015H9.92136C9.93949 12.9577 9.97641 12.7158 10.0317 12.4783Z" fill="#CAA55E"/>
<path id="Vector_6" d="M2.89756 15.371C2.80688 15.371 2.71992 15.4091 2.6558 15.4769C2.59169 15.5447 2.55566 15.6367 2.55566 15.7326C2.55566 15.8285 2.59169 15.9205 2.6558 15.9883C2.71992 16.0561 2.80688 16.0942 2.89756 16.0942H10.6413C10.495 15.8658 10.3689 15.6237 10.2644 15.371H2.89756Z" fill="#CAA55E"/>
<path id="Vector_7" d="M2.89756 13.9247C2.80688 13.9247 2.71992 13.9628 2.6558 14.0306C2.59169 14.0984 2.55566 14.1904 2.55566 14.2863C2.55566 14.3822 2.59169 14.4741 2.6558 14.5419C2.71992 14.6098 2.80688 14.6478 2.89756 14.6478H10.0317C9.97641 14.4104 9.93949 14.1685 9.92136 13.9247H2.89756Z" fill="#CAA55E"/>
<path id="Vector_8" d="M2.89756 16.8173C2.80688 16.8173 2.71992 16.8554 2.6558 16.9232C2.59169 16.9911 2.55566 17.083 2.55566 17.1789C2.55566 17.2748 2.59169 17.3668 2.6558 17.4346C2.71992 17.5024 2.80688 17.5405 2.89756 17.5405H12.1288C12.1355 17.5405 12.1417 17.5388 12.1482 17.5384C11.8092 17.3433 11.4967 17.1008 11.2189 16.8173H2.89756Z" fill="#CAA55E"/>
<path id="Vector_9" d="M15.515 12.3687L13.46 13.9812L12.8952 13.3205C12.8651 13.2853 12.8287 13.2567 12.7881 13.2363C12.7475 13.216 12.7036 13.2043 12.6587 13.2019C12.6139 13.1995 12.569 13.2065 12.5267 13.2225C12.4844 13.2384 12.4455 13.2631 12.4122 13.2949C12.3789 13.3268 12.3519 13.3652 12.3327 13.4082C12.3134 13.4511 12.3024 13.4976 12.3001 13.545C12.2979 13.5924 12.3045 13.6399 12.3196 13.6846C12.3346 13.7293 12.3579 13.7705 12.388 13.8057L13.161 14.7097C13.218 14.7763 13.2963 14.8181 13.3809 14.8269C13.4654 14.8357 13.55 14.811 13.6182 14.7575L15.9224 12.9496C15.9952 12.8924 16.0436 12.807 16.0569 12.7122C16.0702 12.6173 16.0473 12.5208 15.9933 12.4437C15.9393 12.3667 15.8586 12.3155 15.7689 12.3014C15.6792 12.2874 15.5879 12.3116 15.515 12.3687Z" fill="#CAA55E"/>
<path id="Vector_10" d="M7.27384 7.12676V8.26576C7.27384 8.4104 7.39351 8.53695 7.53027 8.53695C7.66702 8.53695 7.78669 8.4104 7.78669 8.26576V7.12676C8.38501 7.03636 8.744 6.65669 8.744 6.07815C8.744 5.39113 8.21406 5.1561 7.78669 4.99338V4.25212C7.95764 4.30636 8.06021 4.41484 8.12859 4.50524C8.19697 4.59563 8.28244 4.63179 8.36791 4.63179C8.53886 4.63179 8.67562 4.48716 8.67562 4.30636C8.67562 4.23404 8.65853 4.1798 8.62434 4.12557C8.43629 3.8363 8.14568 3.6555 7.78669 3.58318V2.44418C7.78669 2.29954 7.66702 2.17299 7.53027 2.17299C7.39351 2.17299 7.27384 2.29954 7.27384 2.44418V3.58318C6.67552 3.69166 6.45329 4.14365 6.45329 4.52331C6.45329 5.13802 6.86356 5.35497 7.27384 5.49961V6.43974C7.0858 6.36742 6.96613 6.24086 6.89775 6.13239C6.84647 6.02391 6.7439 5.96967 6.62424 5.96967C6.45329 5.96967 6.31653 6.11431 6.31653 6.2951C6.31653 6.36742 6.33362 6.40358 6.35072 6.45782C6.52167 6.81941 6.86356 7.05444 7.27384 7.12676ZM8.0944 6.07815C8.0944 6.16855 8.0944 6.40358 7.78669 6.4759V5.69848C8.00892 5.80696 8.0944 5.89735 8.0944 6.07815ZM7.27384 4.2702V4.79451C7.15418 4.72219 7.10289 4.64987 7.10289 4.54139C7.10289 4.39676 7.17127 4.30636 7.27384 4.2702Z" fill="#CAA55E"/>
</g>
</g>
</svg>
