<svg width="42" height="43" viewBox="0 0 42 43" fill="none" xmlns="http://www.w3.org/2000/svg">
<path d="M6.61 24.7737C6.17 23.3703 4.98 22.3538 3.57 22.3538H1.23C0.55 22.3538 0 22.9615 0 23.7129V38.5197C0 39.2711 0.55 39.8788 1.23 39.8788H3.57C5.01 39.8788 6.22 38.8291 6.64 37.3815L16.57 41.6247C17.95 42.2103 19.4 42.5087 20.85 42.5087C22.7 42.5087 24.54 42.0335 26.21 41.0943L41.14 32.7517C41.45 32.5749 41.67 32.2544 41.73 31.8787C41.79 31.503 41.68 31.1163 41.44 30.84L41.35 30.7295C39.77 28.9063 37.34 28.2433 35.17 29.061L28.61 31.5251C28.62 31.4036 28.64 31.282 28.64 31.1494C28.64 29.3594 27.32 27.9118 25.71 27.9118H20.46C18.39 25.8897 15.74 24.7737 12.97 24.7737H6.61ZM5.53 36.3097C5.53 37.5141 4.65 38.4865 3.56 38.4865L1.25 38.5307V23.7681H3.56C4.65 23.7681 5.53 24.7405 5.53 25.945V36.3207V36.3097ZM20.21 29.3152H25.7C26.62 29.3152 27.37 30.1439 27.37 31.1605C27.37 32.1771 26.62 33.0058 25.7 33.0058H15.58C15.23 33.0058 14.95 33.3152 14.95 33.7019C14.95 34.0887 15.23 34.3981 15.58 34.3981H25.7C26.58 34.3981 27.37 33.9561 27.91 33.271L35.57 30.398C37.25 29.7682 39.12 30.2544 40.36 31.6356L25.64 39.8567C22.96 41.3595 19.82 41.5252 17.02 40.3318L6.8 35.9672V26.1881H12.97C15.51 26.1881 17.93 27.2378 19.78 29.1384C19.9 29.2599 20.05 29.3262 20.21 29.3262V29.3152Z" fill="#C49F5E"/>
<path d="M39.36 12.5416C39.36 5.62436 34.27 0 28.01 0C21.75 0 16.66 5.62436 16.66 12.5416C16.66 19.4588 21.75 25.0831 28.01 25.0831C34.27 25.0831 39.36 19.4588 39.36 12.5416ZM17.93 12.5416C17.93 6.39785 22.45 1.40333 28.01 1.40333C33.57 1.40333 38.09 6.39785 38.09 12.5416C38.09 18.6853 33.57 23.6798 28.01 23.6798C22.45 23.6798 17.93 18.6853 17.93 12.5416Z" fill="#C49F5E"/>
<path d="M28.65 20.3316V19.746C30.34 19.4145 31.63 17.7791 31.63 15.8233C31.63 13.6244 30.01 11.8343 28.02 11.8343C26.73 11.8343 25.68 10.6741 25.68 9.24866C25.68 7.82323 26.73 6.663 28.02 6.663C29.31 6.663 30.36 7.82323 30.36 9.24866C30.36 9.6354 30.64 9.9448 30.99 9.9448C31.34 9.9448 31.62 9.6354 31.62 9.24866C31.62 7.29284 30.33 5.65746 28.64 5.32597V4.74033C28.64 4.35358 28.36 4.04419 28.01 4.04419C27.66 4.04419 27.38 4.35358 27.38 4.74033V5.32597C25.69 5.65746 24.4 7.29284 24.4 9.24866C24.4 11.4476 26.02 13.2376 28.01 13.2376C29.3 13.2376 30.35 14.3979 30.35 15.8233C30.35 17.2487 29.3 18.409 28.01 18.409C26.72 18.409 25.67 17.2487 25.67 15.8233C25.67 15.4366 25.39 15.1272 25.04 15.1272C24.69 15.1272 24.41 15.4366 24.41 15.8233C24.41 17.7791 25.7 19.4145 27.39 19.746V20.3316C27.39 20.7184 27.67 21.0278 28.02 21.0278C28.37 21.0278 28.65 20.7184 28.65 20.3316Z" fill="#C49F5E"/>
</svg>
