<?xml version="1.0" encoding="UTF-8"?>
<svg id="arte" xmlns="http://www.w3.org/2000/svg" viewBox="0 0 113 109">
  <defs>
    <style>
      .cls-1 {
        fill: #c49f5e;
      }
    </style>
  </defs>
  <path class="cls-1" d="m19.35,89.46h8.22c1.28,0,2.32-1.04,2.32-2.32v-1.82l18.47,7.14c2.61,1.01,5.36,1.51,8.1,1.51,3.49,0,6.97-.81,10.15-2.41l28.23-14.27c.58-.3,1-.86,1.11-1.5.11-.65-.09-1.3-.55-1.78l-.18-.19c-2.99-3.13-7.58-4.25-11.68-2.86l-12.41,4.22c.02-.21.06-.42.06-.64,0-3.06-2.49-5.54-5.54-5.54h-9.92c-3.91-3.47-8.92-5.37-14.16-5.37h-11.67v-1.81c0-1.28-1.04-2.32-2.32-2.32h-8.22c-1.28,0-2.32,1.04-2.32,2.32v25.34c0,1.28,1.04,2.32,2.32,2.32h0Zm22.21-23.46c4.79,0,9.37,1.8,12.89,5.05.22.2.51.32.81.32h10.38c1.74,0,3.15,1.41,3.15,3.15s-1.41,3.15-3.15,3.15h-19.14c-.66,0-1.2.54-1.2,1.2s.53,1.2,1.2,1.2h19.14c1.67,0,3.16-.76,4.17-1.94l14.49-4.92c3.17-1.08,6.71-.24,9.06,2.12l-27.84,14.08c-5.07,2.56-11.01,2.86-16.31.81l-19.33-7.47v-16.75h11.67Zm-22.14-4.14l8.08-.07v2.97s0,.03,0,.04,0,.03,0,.04l.05,18.41c-.06.21-.05.41,0,.61v3.19s-8.14.07-8.14.07v-25.27Z"/>
  <path class="cls-1" d="m55.44,62.44h29.14c.66,0,1.2-.53,1.2-1.2v-20.79h4.13c.47,0,.89-.27,1.09-.7.19-.43.12-.93-.18-1.28l-5.03-5.83v-14.28c0-.66-.53-1.2-1.2-1.2h-6.62c-.66,0-1.2.53-1.2,1.2v3.84l-5.85-6.77c-.45-.53-1.36-.53-1.81,0l-19.89,23.04c-.31.35-.38.85-.18,1.28.19.43.62.7,1.09.7h4.13v20.79c0,.66.53,1.2,1.2,1.2h0Zm27.94-2.39h-26.75v-19.59h26.75v19.59Zm-4.23-40.49h4.23v10.31l-4.23-4.9v-5.41Zm-9.14-1.52l17.28,20.02h-34.56l17.28-20.02Z"/>
  <path class="cls-1" d="m70.01,35.29c2.48,0,4.51-2.02,4.51-4.51s-2.02-4.51-4.51-4.51-4.51,2.02-4.51,4.51c0,2.48,2.02,4.51,4.51,4.51Zm0-6.62c1.17,0,2.11.95,2.11,2.12s-.95,2.11-2.11,2.11-2.12-.95-2.12-2.11c0-1.17.95-2.12,2.12-2.12Z"/>
</svg>