<svg width="23" height="23" viewBox="0 0 23 23" fill="none" xmlns="http://www.w3.org/2000/svg">
<path d="M12.5625 7.01252C12.225 6.67502 11.7 6.67502 11.3625 7.01252C11.025 7.35002 11.025 7.87502 11.3625 8.21252L13.6125 10.5H7.125C6.675 10.5 6.3 10.875 6.3 11.325C6.3 11.775 6.675 12.15 7.125 12.15H13.6125L11.3625 14.4375C11.025 14.775 11.025 15.3 11.3625 15.6375C11.5125 15.7875 11.7375 15.8625 11.9625 15.8625C12.1875 15.8625 12.4125 15.7875 12.5625 15.6L16.2375 11.8875C16.575 11.55 16.575 11.025 16.2375 10.6875L12.5625 7.01252Z" fill="#CAA55E"/>
<path d="M11.3625 0C5.1 0 0 5.0625 0 11.325C0 17.5875 5.1 22.65 11.3625 22.65C17.625 22.65 22.725 17.5875 22.725 11.325C22.725 5.0625 17.625 0 11.3625 0ZM11.3625 21C6.0375 21 1.6875 16.65 1.6875 11.325C1.6875 6 6.0375 1.65 11.3625 1.65C16.6875 1.65 21.0375 6 21.0375 11.325C21.0375 16.65 16.6875 21 11.3625 21Z" fill="#CAA55E"/>
</svg>
