<svg width="23" height="23" viewBox="0 0 23 23" fill="none" xmlns="http://www.w3.org/2000/svg">
<path d="M10.1625 7.01252C10.5 6.67502 11.025 6.67502 11.3625 7.01252C11.7 7.35002 11.7 7.87502 11.3625 8.21252L9.1125 10.5H15.6C16.05 10.5 16.425 10.875 16.425 11.325C16.425 11.775 16.05 12.15 15.6 12.15H9.1125L11.3625 14.4375C11.7 14.775 11.7 15.3 11.3625 15.6375C11.2125 15.7875 10.9875 15.8625 10.7625 15.8625C10.5375 15.8625 10.3125 15.7875 10.1625 15.6L6.4875 11.8875C6.15 11.55 6.15 11.025 6.4875 10.6875L10.1625 7.01252Z" fill="#CAA55E"/>
<path d="M11.3625 0C17.625 0 22.725 5.0625 22.725 11.325C22.725 17.5875 17.625 22.65 11.3625 22.65C5.1 22.65 0 17.5875 0 11.325C0 5.0625 5.1 0 11.3625 0ZM11.3625 21C16.6875 21 21.0375 16.65 21.0375 11.325C21.0375 6 16.6875 1.65 11.3625 1.65C6.0375 1.65 1.6875 6 1.6875 11.325C1.6875 16.65 6.0375 21 11.3625 21Z" fill="#CAA55E"/>
</svg>
