<?xml version="1.0" encoding="UTF-8"?>
<svg id="arte" xmlns="http://www.w3.org/2000/svg" viewBox="0 0 113 109">
  <defs>
    <style>
      .cls-1 {
        fill: #c49f5e;
      }
    </style>
  </defs>
  <path class="cls-1" d="m29.59,60.51c-.83-2.39-3.08-4.13-5.75-4.13h-4.42c-1.28,0-2.32,1.04-2.32,2.32v25.29c0,1.28,1.04,2.32,2.32,2.32h4.42c2.72,0,5-1.8,5.79-4.26l18.75,7.25c2.6,1.01,5.35,1.51,8.09,1.51,3.48,0,6.96-.81,10.13-2.41l28.18-14.25c.58-.29,1-.86,1.11-1.5.11-.64-.09-1.31-.55-1.78l-.18-.19c-2.99-3.12-7.56-4.24-11.66-2.85l-12.39,4.21c.02-.21.06-.42.06-.64,0-3.05-2.48-5.53-5.53-5.53h-9.9c-3.9-3.46-8.9-5.36-14.13-5.36h-12.01Zm-2.03,19.7c0,2.05-1.67,3.71-3.71,3.71l-4.35.07v-25.22s4.35,0,4.35,0c2.05,0,3.71,1.67,3.71,3.71v17.72Zm27.71-11.95h10.37c1.73,0,3.15,1.41,3.15,3.15s-1.41,3.15-3.15,3.15h-19.1c-.66,0-1.19.53-1.19,1.19s.53,1.19,1.19,1.19h19.1c1.67,0,3.15-.76,4.17-1.93l14.46-4.91c3.16-1.07,6.7-.24,9.05,2.12l-27.79,14.05c-5.06,2.56-10.99,2.85-16.27.81l-19.29-7.46v-16.71h11.65c4.79,0,9.35,1.79,12.86,5.04.22.2.51.32.81.32h0Z"/>
  <path class="cls-1" d="m91.4,39.61c0-11.81-9.61-21.42-21.42-21.42s-21.42,9.61-21.42,21.42,9.61,21.42,21.42,21.42,21.42-9.61,21.42-21.42h0Zm-40.45,0c0-10.49,8.54-19.03,19.03-19.03s19.03,8.54,19.03,19.03-8.54,19.03-19.03,19.03-19.03-8.54-19.03-19.03h0Z"/>
  <path class="cls-1" d="m71.18,52.93v-1c3.19-.57,5.62-3.35,5.62-6.7,0-3.76-3.06-6.81-6.81-6.81-2.44,0-4.42-1.98-4.42-4.42s1.98-4.42,4.42-4.42,4.42,1.98,4.42,4.42c0,.66.53,1.19,1.19,1.19s1.19-.53,1.19-1.19c0-3.35-2.43-6.13-5.62-6.7v-1c0-.66-.53-1.19-1.19-1.19s-1.19.53-1.19,1.19v1c-3.19.57-5.62,3.35-5.62,6.7,0,3.76,3.06,6.81,6.81,6.81,2.44,0,4.42,1.98,4.42,4.42s-1.98,4.42-4.42,4.42-4.42-1.98-4.42-4.42c0-.66-.53-1.19-1.19-1.19s-1.19.53-1.19,1.19c0,3.35,2.43,6.13,5.62,6.7v1c0,.66.53,1.19,1.19,1.19s1.19-.53,1.19-1.19h0Z"/>
</svg>